<svg width="54" height="32" viewBox="0 0 54 32" fill="none" xmlns="http://www.w3.org/2000/svg">
<path d="M5.35 25.025L0.625 7.5H3.475L6.95 22L10.95 7.5H13.875L17.75 22L21.225 7.5H24.075L19.275 25H16.175L12.35 11.275L8.4 25L5.35 25.025ZM27.9064 10.25C27.4064 10.25 26.9898 10.1 26.6564 9.8C26.3398 9.48333 26.1814 9.09167 26.1814 8.625C26.1814 8.15833 26.3398 7.775 26.6564 7.475C26.9898 7.15833 27.4064 7 27.9064 7C28.4064 7 28.8148 7.15833 29.1314 7.475C29.4648 7.775 29.6314 8.15833 29.6314 8.625C29.6314 9.09167 29.4648 9.48333 29.1314 9.8C28.8148 10.1 28.4064 10.25 27.9064 10.25ZM26.5814 25V12.6H29.2314V25H26.5814ZM32.7297 25V7H35.3797V25H32.7297ZM38.7355 25V7H41.3855V25H38.7355ZM45.7914 25.15C45.2914 25.15 44.8747 24.9917 44.5414 24.675C44.2247 24.3417 44.0664 23.95 44.0664 23.5C44.0664 23.0333 44.2247 22.6417 44.5414 22.325C44.8747 21.9917 45.2914 21.825 45.7914 21.825C46.2914 21.825 46.6997 21.9917 47.0164 22.325C47.3331 22.6417 47.4914 23.0333 47.4914 23.5C47.4914 23.95 47.3331 24.3417 47.0164 24.675C46.6997 24.9917 46.2914 25.15 45.7914 25.15Z" fill="white"/>
</svg>
