<svg width="188" height="200" viewBox="0 0 188 200" fill="none" xmlns="http://www.w3.org/2000/svg">
<path fill-rule="evenodd" clip-rule="evenodd" d="M50.2184 65.1432C53.2216 65.8986 56.1754 66.2069 58.9997 66.2069C66.4698 66.2069 73.0207 64.0476 77.1087 62.2944C79.8476 73.6887 98.0948 96.4059 130.417 128.582C131.01 129.279 136.696 136.09 140.246 145.284C145.085 157.811 143.869 168.714 136.631 177.688C136.051 178.408 135.907 179.387 136.257 180.243C136.607 181.099 137.393 181.697 138.311 181.803C139.249 181.909 161.39 184.336 172.107 174.761C175.73 171.525 177.653 167.336 177.832 162.303C178.489 161.403 179.545 160.384 180.38 160.361C180.962 160.352 181.734 160.918 182.519 161.953C182.557 164.532 182.159 174.329 174.626 182.517C167.049 190.752 154.644 194.927 137.756 194.927H61.4927C61.3829 192.739 61.6724 189.088 64.2061 186.056C67.885 181.651 75.4048 179.637 85.9521 180.236C87.0838 180.304 88.1143 179.606 88.4857 178.536C88.857 177.465 88.4747 176.278 87.5489 175.627C87.3834 175.51 78.152 168.886 68.4572 156.149C69.6227 153.782 70.7874 151.339 71.9538 148.816C80.1708 131.044 85.3478 115.809 85.3984 115.657C85.6288 114.975 85.5596 114.227 85.2077 113.6C79.0128 102.554 72.1564 97.0232 64.7285 97.1483C52.587 97.3631 44.381 113.012 44.0383 113.679C43.7649 114.208 43.6872 114.817 43.8172 115.399C47.6767 132.623 55.043 146.414 62.4708 156.745C55.1358 171.229 46.0968 185.989 36.3522 194.927H13.7681C14.0002 193.06 14.7024 190.371 16.7229 188.126C19.4751 185.068 23.9929 183.515 30.1515 183.51C31.1018 183.509 31.9711 182.976 32.4032 182.128C32.8134 181.325 42.4238 162.331 41.5351 150.758C41.4819 150.067 41.1494 149.427 40.6134 148.988C40.4581 148.862 25.085 136.032 25.085 115.881C25.085 115.701 25.0623 115.503 25.0243 115.328C25.0015 115.224 22.8763 104.689 31.1364 84.4802C32.1101 82.9188 36.4616 74.996 36.4787 58.0291C40.5828 61.4944 45.1734 63.8743 50.2184 65.1432ZM27.0254 42.7454C23.4578 40.0015 18.546 37.4334 11.7848 35.6067C11.7383 35.594 11.6911 35.583 11.6438 35.5728C11.5679 35.5568 4.39656 33.5416 5.10719 16.0684H25.507C26.2717 16.0684 26.9958 15.7225 27.4769 15.1255L35.5783 5.07475H55.4999L27.0254 42.7454ZM60.5706 0.000295116L60.532 9.74512e-09H34.3686C33.6039 9.74512e-09 32.8798 0.346723 32.3987 0.943763L24.2973 10.9937H2.71931C1.3951 10.9937 0.294553 12.0169 0.19412 13.3404C-1.29331 33.0935 6.1562 38.628 9.28884 40.0697V80.5264C6.96644 80.9113 5.02511 81.9194 3.49906 83.5374C-0.66738 87.9575 -0.0142623 95.4859 0.113659 96.6345C0.166809 107.334 7.38624 111.168 11.2104 111.701C11.3203 111.717 11.4311 111.724 11.541 111.724C12.077 111.724 12.6004 111.544 13.0121 111.211C13.5084 110.809 13.7931 110.225 13.7931 109.61V41.5249C14.2607 41.6865 14.7205 41.8537 15.1724 42.0263V76.4985C15.1724 77.6708 16.0985 78.6207 17.2414 78.6207C18.3843 78.6207 19.3103 77.6708 19.3103 76.4985V43.874C23.2319 45.9105 26.3379 48.4466 28.4826 51.3937C30.942 54.7721 31.3657 57.6423 31.4146 58.0457C31.3935 74.893 26.8479 81.7852 26.8141 81.8351C26.7052 81.9907 26.6141 82.1573 26.5415 82.3324C18.192 102.651 19.6529 114.076 20.0217 116.129C20.1289 135.84 32.9794 148.911 36.5308 152.149C36.6549 160.768 30.5943 174.198 28.5535 178.468C21.6894 178.751 16.4492 180.852 12.9619 184.727C7.94439 190.303 8.60945 197.422 8.64067 197.723C8.77318 199.016 9.86107 200 11.1591 200H37.3225C37.9403 200 38.5361 199.774 38.9986 199.365C47.7997 191.575 56.8167 178.785 65.8811 161.255C70.7863 167.427 75.4822 172.063 78.956 175.158C70.3415 175.684 64.0733 178.262 60.2712 182.859C54.7701 189.51 56.7231 197.728 56.8083 198.074C57.0894 199.206 58.103 200 59.266 200H137.756C156.117 200 169.774 195.275 178.348 185.956C188.55 174.868 187.589 161.46 187.543 160.894C187.508 160.464 187.364 160.051 187.126 159.692C185.128 156.688 182.803 155.208 180.214 155.29C176.031 155.422 173.408 159.757 173.122 160.252C172.899 160.638 172.781 161.077 172.781 161.522C172.781 165.448 171.46 168.538 168.742 170.968C162.288 176.741 149.892 177.234 143.283 177.033C149.197 167.367 149.778 155.808 144.916 143.314C140.843 132.853 134.444 125.485 134.173 125.175L134.126 125.124C134.102 125.099 134.079 125.074 134.054 125.05C86.3098 77.5308 81.9833 63.2165 81.7946 59.9132C82.7417 59.1622 83.0359 57.8341 82.4754 56.7467V22.833C82.4754 22.1793 82.2231 21.5501 81.7716 21.0782L62.8032 1.24562C62.6391 0.97045 62.4201 0.721739 62.1486 0.516703C61.6763 0.159892 61.12 -0.00803521 60.5706 0.000295116ZM60.8231 6.50845L31.8524 44.8362C37.0775 53.053 43.6557 58.2107 51.424 60.1771C62.6649 63.0228 73.5522 58.4322 77.4118 56.5088V23.8536L60.8231 6.50845ZM65.0769 151.468C58.6246 142.042 52.4087 129.922 48.9729 115.226C50.6541 112.324 56.9949 102.351 64.827 102.221C64.8785 102.22 64.9283 102.22 64.979 102.22C70.1188 102.22 75.246 106.552 80.2297 115.1C78.7763 119.226 73.1858 134.643 65.0769 151.468ZM9.28828 84.8724C8.32977 85.1549 7.52982 85.6421 6.87129 86.3399C4.30386 89.0642 4.36152 94.4231 4.60024 96.2584C4.61106 96.3439 4.61646 96.4293 4.61646 96.5147C4.61646 102.438 7.1983 105.21 9.28828 106.483V84.8724Z" fill="white"/>
</svg>
