<svg width="264" height="250" viewBox="0 0 264 250" fill="none" xmlns="http://www.w3.org/2000/svg">
<path fill-rule="evenodd" clip-rule="evenodd" d="M158.887 25.4523C144.477 20.4622 127.894 20.0128 106.6 27.0329C88.0461 33.1494 75.416 46.9622 67.3217 62.4848C59.141 78.173 56.1879 94.53 56.3543 103.602L34.6295 104C34.3929 91.1046 38.2856 71.1737 48.0553 52.4383C57.9113 33.5372 74.336 14.7905 99.797 6.39686C124.893 -1.87645 146.417 -1.86039 165.997 4.92014C185.26 11.5908 201.583 24.4546 217.02 39.8911L201.656 55.2555C187.165 40.7645 173.614 30.5523 158.887 25.4523ZM158.887 182.149C144.477 187.139 127.894 187.588 106.6 180.568C88.0461 174.452 75.416 160.639 67.3217 145.116C59.141 129.428 56.1879 113.071 56.3543 104L45.5571 103.801H263.669V250H0V103.801H34.6262C34.4333 116.702 38.3361 136.524 48.0553 155.163C57.9113 174.064 74.336 192.811 99.797 201.204C124.893 209.477 146.417 209.461 165.997 202.681C185.26 196.01 201.583 183.146 217.02 167.71L201.656 152.346C187.165 166.837 173.614 177.049 158.887 182.149Z" fill="white"/>
</svg>
