<svg width="20" height="20" viewBox="0 0 20 20" fill="none" xmlns="http://www.w3.org/2000/svg">
<path fill-rule="evenodd" clip-rule="evenodd" d="M14.2887 0H5.71133C2.7985 0 0.428711 2.47601 0.428711 5.51928V14.4807C0.428711 17.5241 2.7985 20 5.71133 20H14.2887C17.2018 20 19.5716 17.524 19.5716 14.4807V5.51928C19.5717 2.47601 17.2018 0 14.2887 0ZM17.8732 14.4807C17.8732 16.5456 16.2653 18.2255 14.2888 18.2255H5.71133C3.73502 18.2256 2.12716 16.5456 2.12716 14.4807V5.51928C2.12716 3.45447 3.73502 1.7745 5.71133 1.7745H14.2887C16.2651 1.7745 17.8731 3.45447 17.8731 5.51928V14.4807H17.8732ZM10 4.84678C7.28012 4.84678 5.06738 7.15859 5.06738 10.0003C5.06738 12.8418 7.28012 15.1535 10 15.1535C12.7199 15.1535 14.9326 12.8418 14.9326 10.0003C14.9326 7.15859 12.7199 4.84678 10 4.84678ZM10 13.3789C8.21676 13.3789 6.76583 11.8633 6.76583 10.0002C6.76583 8.13693 8.21664 6.62116 10 6.62116C11.7834 6.62116 13.2342 8.13693 13.2342 10.0002C13.2342 11.8633 11.7833 13.3789 10 13.3789ZM14.2601 3.72338C14.4912 3.48087 14.8126 3.34246 15.1399 3.34246C15.4682 3.34246 15.7898 3.48087 16.0208 3.72338C16.2529 3.96471 16.3854 4.30068 16.3854 4.64375C16.3854 4.98564 16.2529 5.32161 16.0208 5.56413C15.7887 5.80546 15.4682 5.94505 15.1399 5.94505C14.8126 5.94505 14.4911 5.80546 14.2601 5.56413C14.0279 5.32161 13.8943 4.98576 13.8943 4.64375C13.8943 4.30068 14.0278 3.96471 14.2601 3.72338Z" fill="white"/>
</svg>
