<svg width="487" height="143" viewBox="0 0 487 143" fill="none" xmlns="http://www.w3.org/2000/svg">
<path fill-rule="evenodd" clip-rule="evenodd" d="M0.514429 55.2958C0.857382 53.4258 1.08602 51.9298 1.20034 50.8078C1.31465 49.5611 0.914541 48.2521 0 46.8807C0.457271 44.886 0.800224 43.3277 1.02886 42.2057C1.37181 41.0836 1.42897 39.5253 1.20034 37.5306C2.22919 34.2892 3.77248 31.5465 5.8302 29.3025C8.00223 27.0585 10.3457 25.1884 12.8607 23.6924C15.3757 22.0717 18.005 20.7627 20.7487 19.7654C23.4923 18.6433 26.0644 17.7083 28.4651 16.9603C28.4651 16.4616 28.2365 16.2123 27.7792 16.2123C27.3219 16.2123 27.2076 15.9006 27.4362 15.2773C33.6094 14.0306 39.7825 12.2229 45.9557 9.85422C52.2432 7.48552 58.645 5.36616 65.1611 3.49613C71.6772 1.62611 78.3647 0.504094 85.2238 0.130089C92.0829 -0.368585 99.2849 0.566428 106.83 2.93513C107.287 4.43115 107.916 5.86483 108.716 7.23618L111.117 11.3502C112.031 12.5969 112.832 13.8436 113.517 15.0903C114.203 16.337 114.603 17.646 114.718 19.0173C116.09 20.3887 117.176 21.8847 117.976 23.5054C118.89 25.0014 119.062 27.0585 118.49 29.6765C117.233 30.6738 115.918 31.6712 114.546 32.6685C113.174 33.6659 111.745 34.6009 110.259 35.4736C105.115 34.1022 99.9708 33.6035 94.8265 33.9775C89.6822 34.3515 85.0523 34.7879 80.9369 35.2866C79.6794 33.7905 78.1933 33.1049 76.4785 33.2295C74.7637 33.2295 72.9347 33.5412 70.9913 34.1645C69.1622 34.6632 67.3331 35.2242 65.504 35.8476C63.6749 36.3462 61.9602 36.4709 60.3597 36.2216C59.1022 37.4683 57.4446 38.3409 55.3869 38.8396C53.3292 39.2136 51.1571 39.5253 48.8708 39.7746C48.7565 40.398 48.8708 40.8343 49.2137 41.0836C49.5567 41.333 49.6139 41.8316 49.3852 42.5797C50.1854 43.7017 51.2715 44.512 52.6433 45.0107L56.7587 46.1327C58.2448 46.5067 59.5595 47.0677 60.7027 47.8157C61.8458 48.4391 62.5889 49.4988 62.9319 50.9948C64.9896 51.1194 66.7615 51.7428 68.2476 52.8648C69.7338 53.8621 70.9913 55.1088 72.0201 56.6048C73.049 58.1009 73.792 59.7216 74.2493 61.4669C74.7066 63.0876 74.8781 64.5836 74.7637 65.955C75.221 67.2017 75.6783 67.7003 76.1356 67.451C76.7071 67.2017 77.3359 67.5133 78.0218 68.386C78.4791 70.256 79.5079 72.2507 81.1084 74.3701C82.8231 76.3648 84.1378 78.5465 85.0523 80.9152C85.281 84.6552 85.4524 88.0213 85.5668 91.0133C85.7954 94.0054 85.3381 96.9351 84.1949 99.8024C82.2515 105.288 79.4508 110.212 75.7926 114.576C72.1344 118.939 67.9618 122.804 63.2748 126.17C58.7021 129.411 53.8436 132.279 48.6993 134.772C43.555 137.141 38.4679 139.135 33.4379 140.756C32.9806 140.631 32.409 140.631 31.7231 140.756C31.1516 140.881 31.0372 140.507 31.3802 139.634C30.3513 140.631 29.151 141.255 27.7792 141.504C26.5217 141.753 25.0927 141.816 23.4923 141.691C22.0061 141.691 20.4629 141.629 18.8624 141.504C17.3763 141.379 15.8902 141.442 14.404 141.691C13.4895 140.694 12.6321 139.696 11.8319 138.699C11.146 137.702 10.5744 136.517 10.1171 135.146C9.54552 135.021 9.25973 134.647 9.25973 134.024C9.37405 133.276 9.14541 132.902 8.57382 132.902C8.57382 132.403 8.63098 132.029 8.7453 131.78L9.08825 131.032C9.54552 130.658 9.717 130.409 9.60268 130.284C9.60268 130.035 9.43121 129.848 9.08825 129.723C8.85962 129.473 8.57382 129.224 8.23087 128.975C8.00224 128.725 7.94508 128.414 8.05939 128.04C8.63098 126.918 8.80246 125.609 8.57382 124.113L8.23087 119.251C8.11655 117.63 8.23087 116.134 8.57382 114.763C8.91678 113.267 9.88848 112.02 11.4889 111.023C16.1759 111.521 20.5772 111.272 24.6926 110.275C28.9224 109.277 32.8663 107.906 36.5245 106.161C40.297 104.415 43.8408 102.545 47.156 100.55C50.5856 98.4311 53.9008 96.4987 57.1017 94.7534C57.4446 93.5067 57.959 92.447 58.645 91.5743C59.4452 90.7016 60.2454 89.8913 61.0456 89.1433C61.8458 88.2706 62.5889 87.3979 63.2748 86.5253C63.9607 85.5279 64.4752 84.3436 64.8181 82.9722C64.9324 82.4735 64.9324 82.0995 64.8181 81.8502C64.7038 81.6009 64.5323 81.4138 64.3037 81.2892L63.6178 80.5412C63.3891 80.2918 63.2748 79.9178 63.2748 79.4192L62.246 79.0452C62.0173 78.9205 61.7887 78.8582 61.5601 78.8582C58.5878 77.2375 55.4441 75.8661 52.1288 74.7441C48.8136 73.6221 46.0129 72.3754 43.7265 71.004C42.3547 72.0014 40.9829 72.2507 39.6111 71.7521C38.2393 71.2534 36.5816 70.7547 34.6382 70.256C29.8369 70.0067 25.2642 69.508 20.9201 68.76C16.6904 68.012 12.5749 66.703 8.57382 64.833C8.34519 64.085 8.05939 63.4616 7.71644 62.9629C7.37349 62.3396 6.57326 62.1526 5.31577 62.4019C4.51555 61.1552 3.65816 60.0332 2.74362 59.0359C1.9434 57.9139 1.20034 56.6672 0.514429 55.2958ZM208.274 136.268C207.131 136.891 206.045 137.452 205.016 137.951C204.101 138.45 203.015 138.699 201.758 138.699C197.299 135.084 194.956 128.788 194.727 119.812C194.613 110.836 196.385 99.4284 200.043 85.5902C200.615 85.2162 200.9 84.4682 200.9 83.3462L199.357 81.4762C198.9 81.4762 198.443 81.5385 197.985 81.6632C197.642 81.7879 197.357 82.2242 197.128 82.9722C194.156 85.3409 190.898 87.8343 187.354 90.4523C183.81 92.9457 180.095 95.3144 176.208 97.5584C172.435 99.6778 168.549 101.423 164.547 102.794C160.661 104.166 156.831 104.852 153.059 104.852C143.456 104.852 136.254 99.5531 131.453 88.9563L130.081 86.1513L128.709 88.5823C128.366 89.081 127.852 90.1406 127.166 91.7613C126.48 93.2574 125.794 95.0027 125.108 96.9974C124.422 98.9921 123.793 101.049 123.222 103.168C122.764 105.163 122.593 106.909 122.707 108.405C121.678 109.527 120.592 110.836 119.449 112.332C118.306 113.828 117.449 115.511 116.877 117.381C116.648 118.378 116.763 119.313 117.22 120.186C116.991 121.308 116.477 122.18 115.677 122.804C115.219 123.427 114.705 124.05 114.133 124.674C113.676 125.172 113.276 125.733 112.933 126.357C112.704 126.98 112.533 127.603 112.419 128.227C112.419 128.85 112.361 129.474 112.247 130.097C112.247 130.97 112.133 131.78 111.904 132.528C109.961 136.891 108.418 139.696 107.274 140.943C106.131 142.314 104.588 143 102.644 143C101.73 143 100.244 142.813 98.1861 142.439C96.7 140.694 95.3282 138.325 94.0707 135.333C92.9275 132.216 92.013 128.913 91.327 125.422C90.7555 121.931 90.4697 118.44 90.4697 114.95C90.584 111.334 91.1556 108.218 92.1844 105.6C92.1844 105.475 92.6417 104.228 93.5562 101.859C94.4708 99.4908 95.614 96.4364 96.9858 92.6963C98.4719 88.9563 100.13 84.8422 101.959 80.3542C103.788 75.7414 105.617 71.3157 107.446 67.077C109.275 62.7136 110.99 58.7242 112.59 55.1088C114.305 51.4935 115.734 48.7507 116.877 46.8807C117.792 45.3847 118.592 44.0134 119.278 42.7667C120.078 41.3953 120.821 40.0863 121.507 38.8396C123.565 34.9749 125.508 31.7959 127.337 29.3025C129.281 26.6844 132.081 24.6274 135.739 23.1314C138.254 24.2534 140.084 25.5624 141.227 27.0585L141.57 29.1155C142.027 30.3622 142.713 30.9855 143.627 30.9855C144.885 31.3595 145.914 31.7335 146.714 32.1075C147.628 32.3569 148.6 32.6062 149.629 32.8555C150.429 33.8529 151.172 35.0372 151.858 36.4086C152.773 37.9046 153.63 39.4006 154.43 40.8966C155.345 42.268 156.031 43.7017 156.488 45.1977C157.06 46.569 157.345 48.0027 157.345 49.4988C157.46 50.9948 157.231 52.5531 156.66 54.1738L156.831 56.0438C157.403 57.1659 157.517 58.7242 157.174 60.7189C157.06 61.5916 157.003 62.5266 157.003 63.5239C157.003 64.3966 157.117 65.394 157.345 66.516C159.403 68.2613 161.232 69.134 162.833 69.134C164.662 69.134 166.319 68.6977 167.806 67.825C169.406 66.8277 170.892 65.8303 172.264 64.833C173.178 64.085 174.093 63.4616 175.008 62.9629C175.922 62.3396 176.837 61.9656 177.751 61.8409C179.809 59.7216 181.638 57.8515 183.238 56.2309C184.953 54.6102 186.725 52.9895 188.554 51.3688C191.984 48.3767 195.299 45.1354 198.5 41.6446C201.701 38.1539 204.273 33.7905 206.216 28.5545C207.359 27.8065 208.56 27.4325 209.817 27.4325C211.075 27.4325 212.389 27.7441 213.761 28.3675C215.133 28.9908 216.448 29.6142 217.705 30.2375C218.048 30.4868 218.334 30.6738 218.563 30.7985C218.906 30.9232 219.191 31.0478 219.42 31.1725C219.42 32.4192 219.877 33.4789 220.792 34.3516C221.249 34.7256 221.535 34.9749 221.649 35.0996C221.763 35.2242 221.935 35.3489 222.164 35.4736C223.878 36.4709 224.964 37.4683 225.422 38.4656C226.222 41.333 227.651 43.5147 229.709 45.0107C229.48 46.2574 229.48 47.4417 229.709 48.5637C230.051 49.5611 230.452 50.6208 230.909 51.7428L231.252 52.8648C231.366 53.2388 231.538 53.6751 231.766 54.1738L228.508 53.7998L229.023 57.3529C229.251 59.0982 229.08 61.0306 228.508 63.1499C228.051 65.2693 227.479 66.9523 226.793 68.199C226.908 71.4404 226.965 73.9961 226.965 75.8661C227.079 77.6115 227.022 79.2945 226.793 80.9152C226.565 82.4112 226.222 83.8449 225.765 85.2162C225.422 86.5876 224.907 88.0836 224.221 89.7043C224.473 94.1017 224.326 98.2909 223.779 102.272C226.334 96.5793 228.942 90.7694 231.604 84.8422C232.519 82.8475 233.376 80.8528 234.176 78.8581L236.92 72.8741C236.806 72.5001 236.748 72.0637 236.748 71.565C236.748 71.0664 236.863 70.5054 237.091 69.882C238.349 67.7627 239.378 65.8926 240.178 64.2719L242.579 59.0359C243.493 56.9165 244.408 54.8595 245.322 52.8648C246.351 50.8701 247.609 48.8131 249.095 46.6937L251.838 45.3847C252.181 45.26 252.581 45.1354 253.039 45.0107C253.496 44.7614 254.01 44.6367 254.582 44.6367L257.154 45.0107C260.355 43.39 263.156 41.146 265.557 38.2786C267.957 35.2866 270.415 31.7335 272.93 27.6195L274.645 25.0014L276.874 26.4974C277.446 26.8715 278.246 27.2455 279.275 27.6195C280.303 27.8688 281.389 28.1805 282.533 28.5545C284.59 29.0531 286.534 29.6142 288.363 30.2375C290.192 30.8608 291.678 31.7958 292.821 33.0425C293.507 35.0372 293.907 36.5332 294.022 37.5306C294.136 38.5279 294.307 39.5253 294.536 40.5226C294.879 42.642 295.165 44.7614 295.393 46.8807C295.736 49.0001 295.965 51.3688 296.079 53.9868C296.651 56.1062 297.108 58.2255 297.451 60.3449C297.908 62.3396 298.309 64.3966 298.651 66.516C299.223 69.508 299.795 72.4377 300.366 75.3051C300.938 78.0478 301.681 80.6658 302.595 83.1592C303.51 83.1592 304.082 83.2215 304.31 83.3462C304.882 83.0969 305.453 82.9099 306.025 82.7852C306.711 82.6605 307.454 82.5359 308.254 82.4112L310.14 82.2242L310.826 84.0942C310.941 84.7175 311.512 85.3409 312.541 85.9642C314.027 86.0889 315.113 86.4629 315.799 87.0862C316.485 87.5849 317.114 88.1459 317.685 88.7693C318.143 89.2679 318.6 89.6419 319.057 89.8913L321.629 91.0133L320.257 93.8183C319.114 96.0624 317.457 98.2441 315.285 100.363C313.227 102.358 310.883 104.041 308.254 105.412C308.368 106.16 308.426 106.909 308.426 107.657C308.54 108.28 308.711 108.966 308.94 109.714C309.283 111.833 309.569 114.015 309.797 116.259C310.026 118.503 310.026 120.809 309.797 123.178L309.454 123.926C308.769 126.045 307.74 128.227 306.368 130.471C305.11 132.59 303.567 134.523 301.738 136.268C300.023 137.889 298.08 139.26 295.908 140.382C293.736 141.504 291.449 142.127 289.049 142.252C287.563 141.878 286.534 141.442 285.962 140.943C285.505 140.569 284.991 140.195 284.419 139.821C284.076 139.572 283.733 139.385 283.39 139.26C283.161 139.011 282.933 138.824 282.704 138.699L280.646 137.764L281.332 135.333C281.561 134.336 281.504 133.588 281.161 133.089C280.818 132.465 280.132 131.655 279.103 130.658L278.074 129.536C277.731 129.162 277.446 128.788 277.217 128.414L274.302 124.861L278.932 123.552C281.79 122.679 283.676 121.557 284.59 120.186C285.619 118.814 286.019 116.508 285.791 113.267C283.504 112.768 281.561 112.706 279.961 113.08C278.474 113.454 276.931 113.89 275.331 114.389C273.273 115.012 271.158 115.573 268.986 116.072C266.928 116.446 264.642 116.633 262.127 116.633H259.555C258.755 116.508 257.897 116.383 256.983 116.259L255.268 115.885C255.039 114.513 254.811 113.765 254.582 113.641L253.896 112.893C253.325 112.269 252.696 111.459 252.01 110.462C251.438 109.34 251.324 107.968 251.667 106.347C251.095 105.225 250.752 104.103 250.638 102.981C249.952 104.477 249.438 106.036 249.095 107.657L248.409 109.527L246.694 109.901C246.465 110.025 246.294 110.337 246.18 110.836C246.065 111.21 246.008 111.521 246.008 111.771L245.151 114.95L244.465 115.698C244.236 115.822 244.008 116.009 243.779 116.259C243.55 117.381 243.265 118.503 242.922 119.625C242.579 120.747 242.236 121.806 241.893 122.804C241.321 124.424 240.807 126.045 240.349 127.666C240.007 129.162 239.892 130.658 240.007 132.154L239.321 134.211C238.749 134.959 238.12 135.582 237.434 136.081L235.377 137.203C235.148 137.452 234.805 137.702 234.348 137.951C234.005 138.076 233.719 138.2 233.49 138.325L232.976 140.382L230.918 140.756C229.661 141.005 228.746 141.192 228.175 141.317C227.717 141.442 227.146 141.504 226.46 141.504L224.745 141.317C223.488 140.195 222.516 139.322 221.83 138.699C221.144 137.951 220.344 137.265 219.429 136.642C218.4 135.146 217.829 134.024 217.715 133.276C217.6 132.528 217.486 131.842 217.372 131.219C217.143 130.471 217.029 129.847 217.029 129.349C216.914 128.85 216.743 128.476 216.514 128.227L215.998 127.707C215.712 128.448 215.423 129.182 215.133 129.91C214.904 130.533 214.619 131.157 214.276 131.78L213.59 133.65C212.561 134.024 211.646 134.46 210.846 134.959C210.046 135.333 209.189 135.769 208.274 136.268ZM269.158 90.8263C266.414 91.0756 263.327 91.325 259.898 91.5743C259.326 91.699 258.697 91.7613 258.012 91.7613C257.44 91.7613 256.811 91.8236 256.125 91.9483C256.697 90.8263 257.326 89.7043 258.012 88.5823L260.069 85.2162C261.555 82.3488 263.327 79.2945 265.385 76.0531C267.557 72.8117 269.786 69.882 272.073 67.264L273.101 65.394C274.13 69.3833 275.102 73.4351 276.017 77.5491C276.931 81.5385 277.788 85.4032 278.589 89.1433C275.159 89.8913 272.015 90.4523 269.158 90.8263ZM311.958 55.4828C312.758 52.8648 314.016 50.6208 315.73 48.7507C317.559 46.8807 319.503 45.3224 321.56 44.0757C323.733 42.7043 325.962 41.5823 328.248 40.7096C330.534 39.837 332.706 39.0889 334.764 38.4656C339.337 36.3462 344.195 34.3515 349.34 32.4815C354.598 30.4868 359.914 28.7415 365.287 27.2454C370.774 25.7494 376.376 24.8144 382.092 24.4404C387.808 23.9417 393.809 24.6897 400.097 26.6844C400.44 27.9311 400.954 29.1155 401.64 30.2375L403.698 33.6035C404.293 34.4388 404.826 35.2741 405.295 36.1094C405.486 35.6377 405.685 35.1764 405.892 34.7256C407.493 31.1102 410.065 28.7415 413.609 27.6195C414.295 30.2375 415.152 32.5439 416.181 34.5386C417.324 36.5333 418.524 38.4656 419.782 40.3356C421.154 42.081 422.468 43.8887 423.726 45.7587C425.098 47.6287 426.355 49.7481 427.498 52.1168C427.384 54.4855 427.155 57.2282 426.812 60.3449C426.469 63.4616 426.012 66.6407 425.44 69.882C424.983 73.1234 424.469 76.2401 423.897 79.2322C423.44 82.2242 422.983 84.7799 422.525 86.8993C422.64 87.5226 422.926 87.8966 423.383 88.0213C423.954 88.146 424.069 88.707 423.726 89.7043C426.469 88.9563 429.327 88.2706 432.3 87.6473C435.272 87.0239 438.244 86.3383 441.216 85.5903C444.189 84.8422 447.047 84.0319 449.79 83.1592C452.648 82.1619 455.277 80.9775 457.678 79.6062C458.25 74.7441 458.993 69.882 459.907 65.02C460.822 60.1579 460.936 55.1712 460.25 50.0598C460.822 49.5611 461.279 48.9378 461.622 48.1897C461.965 47.4417 462.537 46.9431 463.337 46.6937C462.765 44.325 462.537 41.8317 462.651 39.2136C462.765 36.5956 463.165 34.1022 463.851 31.7335C464.651 29.3648 465.737 27.3701 467.109 25.7494C468.595 24.0041 470.367 22.8821 472.425 22.3834C473.683 24.3781 474.769 26.5598 475.683 28.9285C476.598 31.1725 477.512 33.4789 478.427 35.8476C479.456 38.0916 480.484 40.2733 481.513 42.3927C482.656 44.3874 484.085 46.1327 485.8 47.6287C486.143 51.2441 486.372 54.9842 486.486 58.8489C486.715 62.7136 486.886 66.6407 487.001 70.6301C486.086 75.3675 485.057 79.9802 483.914 84.4682C482.885 88.8316 482.142 93.5067 481.685 98.4934C480.885 99.4908 480.256 100.613 479.799 101.859C479.341 103.106 478.884 104.415 478.427 105.787C477.969 107.033 477.455 108.28 476.883 109.527C476.312 110.649 475.626 111.646 474.826 112.519C475.283 114.015 475.34 115.448 474.997 116.82C474.769 118.066 475.112 119.625 476.026 121.495C476.255 124.736 475.912 127.416 474.997 129.536C474.083 131.655 472.825 133.463 471.225 134.959C469.624 136.455 467.795 137.639 465.737 138.512C463.68 139.385 461.679 140.195 459.736 140.943L456.992 139.073C456.192 138.325 455.22 137.764 454.077 137.39C452.591 134.398 451.162 131.78 449.79 129.536C448.418 127.167 447.79 124.487 447.904 121.495C447.904 121.37 447.961 120.684 448.075 119.438C448.304 118.191 448.533 116.82 448.761 115.324C449.104 113.828 449.333 112.456 449.447 111.21C449.676 109.838 449.79 109.09 449.79 108.966C447.161 109.215 444.417 109.838 441.559 110.836C438.701 111.833 435.901 113.017 433.157 114.389C430.528 115.76 428.013 117.131 425.612 118.503C423.326 119.874 421.439 121.058 419.953 122.056C419.953 122.43 419.725 123.365 419.267 124.861C418.81 126.232 418.238 127.728 417.553 129.349C416.867 130.845 416.124 132.216 415.323 133.463C414.523 134.71 413.723 135.333 412.923 135.333C413.037 135.707 413.208 136.081 413.437 136.455C413.666 136.829 413.666 137.328 413.437 137.951C411.837 138.45 410.408 139.073 409.15 139.821C407.893 140.694 406.578 141.379 405.206 141.878C403.834 142.501 402.348 142.813 400.748 142.813C399.147 142.813 397.261 142.19 395.089 140.943C395.089 140.195 394.803 139.572 394.232 139.073C393.66 138.45 393.031 137.951 392.346 137.577C391.774 137.078 391.259 136.704 390.802 136.455C390.345 136.081 390.116 135.769 390.116 135.52C389.545 135.645 389.316 135.208 389.43 134.211C389.545 133.214 390.002 132.964 390.802 133.463C389.545 131.718 388.745 130.222 388.402 128.975C388.173 127.604 387.544 125.92 386.515 123.926C386.744 123.676 386.973 123.24 387.201 122.617C387.316 121.993 387.43 121.432 387.544 120.934C387.659 120.435 387.83 120.061 388.059 119.812C388.287 119.562 388.573 119.625 388.916 119.999C388.687 118.877 388.687 117.942 388.916 117.194C389.145 116.446 389.373 115.76 389.602 115.137C389.831 114.513 390.002 113.89 390.116 113.267C390.231 112.643 390.059 111.958 389.602 111.21C391.431 108.467 392.631 105.537 393.203 102.42C393.775 99.1791 394.117 96.2494 394.232 93.6314C395.032 92.7587 395.718 91.512 396.289 89.8913C396.975 88.2706 397.49 86.6499 397.833 85.0293C398.176 83.2839 398.29 81.6632 398.176 80.1672C398.176 78.5465 398.004 77.2375 397.661 76.2401C397.776 75.6168 398.404 75.4298 399.548 75.6791C400.233 71.5651 400.691 66.9523 400.919 61.8409C401.108 58.9536 401.35 56.1611 401.643 53.4633C397.858 52.6059 394.027 52.3441 390.151 52.6778C385.807 53.0518 381.92 53.3635 378.491 53.6128C377.462 52.4908 376.204 51.9298 374.718 51.9298C373.346 51.9298 371.86 52.1791 370.26 52.6778C368.774 53.1765 367.23 53.6751 365.63 54.1738C364.144 54.6725 362.715 54.7972 361.343 54.5478C360.2 55.5452 358.771 56.2308 357.056 56.6048C355.456 56.8542 353.684 57.1035 351.74 57.3529C351.626 57.9762 351.74 58.4125 352.083 58.6619C352.426 58.7865 352.483 59.1605 352.255 59.7839C352.941 60.6566 353.798 61.2799 354.827 61.6539L358.256 62.7759C359.514 63.1499 360.6 63.6486 361.515 64.2719C362.429 64.7706 363.058 65.6433 363.401 66.89C365.116 66.89 366.602 67.3263 367.859 68.199C369.117 69.0717 370.146 70.1314 370.946 71.378C371.746 72.6247 372.318 73.9961 372.66 75.4921C373.118 76.8634 373.346 78.1101 373.346 79.2321C373.689 80.2295 374.089 80.6658 374.547 80.5412C375.004 80.4165 375.518 80.6658 376.09 81.2892C376.433 82.9099 377.29 84.5929 378.662 86.3382C380.034 87.9589 381.12 89.7666 381.92 91.7613C382.149 94.878 382.32 97.6831 382.435 100.176C382.549 102.545 382.149 104.976 381.234 107.47C379.52 112.082 377.119 116.196 374.032 119.812C371.06 123.427 367.631 126.668 363.744 129.536C359.971 132.279 355.913 134.647 351.569 136.642C347.225 138.637 342.995 140.32 338.88 141.691C338.422 141.566 337.965 141.566 337.508 141.691C337.051 141.816 336.936 141.504 337.165 140.756C336.25 141.629 335.221 142.19 334.078 142.439C333.049 142.688 331.906 142.751 330.649 142.626C329.391 142.626 328.077 142.564 326.705 142.439C325.447 142.314 324.247 142.377 323.104 142.626C322.304 141.753 321.56 140.881 320.875 140.008C320.303 139.26 319.846 138.263 319.503 137.016C318.931 137.016 318.645 136.704 318.645 136.081C318.76 135.458 318.588 135.146 318.131 135.146C318.817 133.899 319.103 133.214 318.988 133.089C318.988 132.84 318.817 132.653 318.474 132.528L317.788 132.154C317.559 131.905 317.502 131.593 317.617 131.219C318.074 130.221 318.245 129.099 318.131 127.853L317.788 123.739C317.674 122.367 317.731 121.058 317.96 119.812C318.302 118.565 319.16 117.568 320.532 116.82C324.418 117.318 328.077 117.194 331.506 116.446C335.05 115.573 338.365 114.389 341.452 112.893C344.538 111.397 347.453 109.776 350.197 108.031C353.055 106.285 355.856 104.727 358.599 103.355C358.942 102.233 359.4 101.298 359.971 100.55C360.657 99.8024 361.343 99.1167 362.029 98.4934C362.715 97.8701 363.344 97.1844 363.915 96.4364C364.487 95.6884 364.887 94.7534 365.116 93.6313C365.23 92.7587 365.001 92.26 364.43 92.1353C363.972 91.886 363.744 91.3873 363.744 90.6393L361.857 90.0783C359.685 88.7069 357.228 87.5849 354.484 86.7122C351.74 85.7149 349.397 84.6552 347.453 83.5332C346.196 84.2812 344.996 84.4682 343.852 84.0942C342.824 83.7202 341.452 83.3462 339.737 82.9722C335.85 82.7229 332.078 82.2865 328.42 81.6632C324.876 81.0398 321.446 79.9178 318.131 78.2971C317.902 77.6738 317.617 77.1128 317.274 76.6141C316.931 76.1154 316.302 75.9908 315.387 76.2401C314.701 75.2428 314.016 74.3077 313.33 73.4351C312.644 72.4377 312.015 71.378 311.443 70.256C311.672 68.76 311.844 67.5133 311.958 66.516C312.072 65.394 311.729 64.3343 310.929 63.3369C311.386 61.7162 311.729 60.4072 311.958 59.4099C312.186 58.4125 312.186 57.1035 311.958 55.4828Z" fill="white"/>
</svg>
