<svg width="487" height="200" viewBox="0 0 487 200" fill="none" xmlns="http://www.w3.org/2000/svg">
<path fill-rule="evenodd" clip-rule="evenodd" d="M58.9997 66.2069C56.1754 66.2069 53.2216 65.8986 50.2184 65.1432C45.1734 63.8743 40.5828 61.4944 36.4787 58.0291C36.4616 74.996 32.1101 82.9188 31.1364 84.4802C22.8763 104.689 25.0015 115.224 25.0243 115.328C25.0623 115.503 25.085 115.701 25.085 115.881C25.085 136.032 40.4581 148.862 40.6134 148.988C41.1494 149.427 41.4819 150.067 41.5351 150.758C42.4238 162.331 32.8134 181.325 32.4032 182.128C31.9711 182.976 31.1018 183.509 30.1515 183.51C23.9929 183.515 19.4751 185.068 16.7229 188.126C14.7024 190.371 14.0002 193.06 13.7681 194.927H36.3522C46.0968 185.989 55.1358 171.229 62.4708 156.745C55.043 146.414 47.6767 132.623 43.8172 115.399C43.6872 114.817 43.7649 114.208 44.0383 113.679C44.381 113.012 52.587 97.3631 64.7285 97.1483C72.1563 97.0231 79.0128 102.554 85.2077 113.6C85.5596 114.227 85.6288 114.975 85.3984 115.657C85.3478 115.809 80.1708 131.044 71.9538 148.816C70.7874 151.339 69.6227 153.782 68.4572 156.149C78.152 168.886 87.3834 175.51 87.5489 175.627C88.4747 176.278 88.857 177.465 88.4857 178.536C88.1143 179.606 87.0838 180.304 85.9521 180.236C75.4048 179.637 67.885 181.651 64.2061 186.056C61.6724 189.088 61.3829 192.739 61.4927 194.927H137.756C154.644 194.927 167.049 190.752 174.626 182.517C182.159 174.329 182.557 164.532 182.519 161.953C181.734 160.918 180.962 160.352 180.38 160.361C179.545 160.384 178.489 161.403 177.832 162.303C177.653 167.336 175.73 171.525 172.107 174.761C161.39 184.336 139.249 181.909 138.311 181.803C137.393 181.697 136.607 181.099 136.257 180.243C135.907 179.387 136.051 178.408 136.631 177.688C143.868 168.714 145.085 157.811 140.246 145.284C136.696 136.09 131.01 129.279 130.417 128.582C98.0948 96.4059 79.8476 73.6887 77.1087 62.2944C73.0207 64.0476 66.4698 66.2069 58.9997 66.2069ZM11.7848 35.6067C18.546 37.4334 23.4578 40.0015 27.0254 42.7454L55.4999 5.07475H35.5783L27.4769 15.1255C26.9958 15.7225 26.2717 16.0684 25.507 16.0684H5.10719C4.39656 33.5416 11.5679 35.5568 11.6438 35.5728C11.6911 35.583 11.7383 35.594 11.7848 35.6067ZM60.532 -7.61963e-06L60.5706 0.000287487C61.12 -0.00804284 61.6763 0.159884 62.1487 0.516696C62.4201 0.721732 62.6391 0.970442 62.8032 1.24561L81.7716 21.0782C82.2231 21.5501 82.4754 22.1793 82.4754 22.833V56.7467C83.0359 57.8341 82.7417 59.1622 81.7946 59.9132C81.9833 63.2165 86.3098 77.5308 134.054 125.05C134.079 125.074 134.102 125.099 134.126 125.124L134.173 125.175C134.443 125.485 140.843 132.853 144.916 143.314C149.778 155.808 149.197 167.367 143.283 177.033C149.892 177.234 162.288 176.741 168.742 170.968C171.46 168.538 172.781 165.448 172.781 161.522C172.781 161.077 172.899 160.638 173.122 160.252C173.408 159.757 176.031 155.422 180.214 155.29C182.803 155.208 185.128 156.688 187.126 159.692C187.364 160.051 187.508 160.464 187.543 160.894C187.589 161.46 188.55 174.868 178.348 185.956C169.774 195.275 156.117 200 137.756 200H59.266C58.103 200 57.0894 199.206 56.8083 198.074C56.7231 197.728 54.7701 189.51 60.2712 182.859C64.0733 178.262 70.3415 175.684 78.956 175.158C75.4822 172.063 70.7863 167.427 65.8811 161.255C56.8167 178.785 47.7997 191.575 38.9986 199.365C38.5361 199.774 37.9403 200 37.3225 200H11.1591C9.86107 200 8.77318 199.016 8.64067 197.723C8.60945 197.422 7.94439 190.303 12.9619 184.727C16.4492 180.852 21.6894 178.751 28.5535 178.468C30.5943 174.198 36.6549 160.768 36.5308 152.149C32.9794 148.911 20.1289 135.84 20.0217 116.129C19.6529 114.076 18.192 102.651 26.5415 82.3323C26.6141 82.1573 26.7052 81.9907 26.8141 81.8351C26.8479 81.7852 31.3935 74.893 31.4146 58.0457C31.3657 57.6423 30.942 54.7721 28.4826 51.3937C26.3379 48.4466 23.2319 45.9105 19.3103 43.874V76.4984C19.3103 77.6708 18.3843 78.6207 17.2414 78.6207C16.0985 78.6207 15.1724 77.6708 15.1724 76.4984V42.0263C14.7205 41.8537 14.2607 41.6865 13.7931 41.5249V109.61C13.7931 110.225 13.5084 110.809 13.0121 111.211C12.6004 111.544 12.077 111.724 11.541 111.724C11.4311 111.724 11.3203 111.717 11.2104 111.701C7.38624 111.168 0.166809 107.334 0.113659 96.6344C-0.0142623 95.4859 -0.66738 87.9575 3.49906 83.5374C5.02511 81.9194 6.96644 80.9113 9.28884 80.5264V40.0696C6.1562 38.628 -1.29331 33.0934 0.19412 13.3404C0.294553 12.0169 1.3951 10.9936 2.71931 10.9936H24.2973L32.3987 0.943756C32.8798 0.346716 33.6039 -7.61963e-06 34.3686 -7.61963e-06H60.532ZM31.8524 44.8362L60.8231 6.50844L77.4118 23.8536V56.5088C73.5522 58.4322 62.6649 63.0227 51.424 60.1771C43.6557 58.2107 37.0775 53.053 31.8524 44.8362ZM48.9729 115.226C52.4087 129.922 58.6246 142.042 65.0769 151.468C73.1858 134.643 78.7763 119.226 80.2297 115.1C75.246 106.552 70.1188 102.22 64.979 102.22C64.9283 102.22 64.8785 102.22 64.827 102.221C56.9949 102.351 50.6541 112.324 48.9729 115.226ZM6.87129 86.3399C7.52982 85.6421 8.32977 85.1549 9.28828 84.8724V106.483C7.1983 105.21 4.61646 102.438 4.61646 96.5147C4.61646 96.4293 4.61106 96.3438 4.60024 96.2584C4.36152 94.4231 4.30386 89.0642 6.87129 86.3399ZM241.839 132.138C238.099 132.138 234.758 131.372 231.816 129.839C228.934 128.307 226.728 126.161 225.195 123.402L224.459 131.035H217.471V64.8276H225.195V92.9655C226.666 90.7586 228.751 88.7663 231.448 86.9885C234.206 85.2108 237.701 84.3219 241.931 84.3219C246.467 84.3219 250.421 85.364 253.793 87.4483C257.164 89.5326 259.77 92.3832 261.609 96C263.509 99.6169 264.459 103.724 264.459 108.322C264.459 112.92 263.509 117.027 261.609 120.644C259.77 124.199 257.134 127.019 253.701 129.103C250.329 131.126 246.375 132.138 241.839 132.138ZM241.011 125.425C244.076 125.425 246.773 124.72 249.103 123.31C251.433 121.839 253.272 119.816 254.62 117.241C255.969 114.667 256.643 111.663 256.643 108.23C256.643 104.797 255.969 101.793 254.62 99.2184C253.272 96.6437 251.433 94.6514 249.103 93.2414C246.773 91.7701 244.076 91.0345 241.011 91.0345C237.946 91.0345 235.249 91.7701 232.919 93.2414C230.59 94.6514 228.751 96.6437 227.402 99.2184C226.053 101.793 225.379 104.797 225.379 108.23C225.379 111.663 226.053 114.667 227.402 117.241C228.751 119.816 230.59 121.839 232.919 123.31C235.249 124.72 237.946 125.425 241.011 125.425ZM291.855 132.138C286.461 132.138 282.169 130.513 278.982 127.264C275.794 123.954 274.2 118.897 274.2 112.092V85.4253H281.924V111.264C281.924 120.766 285.817 125.517 293.602 125.517C297.587 125.517 300.867 124.107 303.441 121.287C306.077 118.406 307.395 114.33 307.395 109.057V85.4253H315.12V131.035H308.131L307.579 122.851C306.169 125.732 304.054 128 301.234 129.655C298.476 131.31 295.349 132.138 291.855 132.138ZM336.569 129.012C340.002 131.096 343.987 132.138 348.523 132.138C352.692 132.138 356.155 131.249 358.914 129.471C361.673 127.694 363.788 125.701 365.259 123.494L365.995 131.035H372.983V64.8276H365.259V93.0575C363.665 90.2989 361.427 88.1533 358.546 86.6207C355.665 85.0882 352.355 84.3219 348.615 84.3219C344.018 84.3219 340.033 85.364 336.661 87.4483C333.29 89.4713 330.654 92.2912 328.753 95.9081C326.853 99.4636 325.903 103.54 325.903 108.138C325.903 112.736 326.822 116.843 328.661 120.46C330.562 124.077 333.198 126.927 336.569 129.012ZM357.443 123.31C355.113 124.72 352.416 125.425 349.351 125.425C346.347 125.425 343.65 124.72 341.259 123.31C338.929 121.839 337.09 119.816 335.742 117.241C334.454 114.667 333.811 111.663 333.811 108.23C333.811 104.797 334.454 101.793 335.742 99.2184C337.09 96.6437 338.929 94.6514 341.259 93.2414C343.65 91.7701 346.347 91.0345 349.351 91.0345C352.416 91.0345 355.113 91.7701 357.443 93.2414C359.834 94.6514 361.673 96.6437 362.96 99.2184C364.309 101.793 364.983 104.797 364.983 108.23C364.983 111.663 364.309 114.667 362.96 117.241C361.673 119.816 359.834 121.839 357.443 123.31ZM406.264 132.138C401.728 132.138 397.743 131.096 394.31 129.012C390.938 126.927 388.302 124.077 386.402 120.46C384.563 116.843 383.643 112.736 383.643 108.138C383.643 103.54 384.593 99.4636 386.494 95.9081C388.394 92.2912 391.03 89.4713 394.402 87.4483C397.774 85.364 401.758 84.3219 406.356 84.3219C410.095 84.3219 413.406 85.0882 416.287 86.6207C419.168 88.1533 421.406 90.2989 423 93.0575V64.8276H430.724V131.035H423.735L423 123.494C421.528 125.701 419.413 127.694 416.655 129.471C413.896 131.249 410.433 132.138 406.264 132.138ZM407.092 125.425C410.157 125.425 412.854 124.72 415.183 123.31C417.574 121.839 419.413 119.816 420.701 117.241C422.049 114.667 422.724 111.663 422.724 108.23C422.724 104.797 422.049 101.793 420.701 99.2184C419.413 96.6437 417.574 94.6514 415.183 93.2414C412.854 91.7701 410.157 91.0345 407.092 91.0345C404.088 91.0345 401.39 91.7701 399 93.2414C396.67 94.6514 394.831 96.6437 393.482 99.2184C392.195 101.793 391.551 104.797 391.551 108.23C391.551 111.663 392.195 114.667 393.482 117.241C394.831 119.816 396.67 121.839 399 123.31C401.39 124.72 404.088 125.425 407.092 125.425ZM459.591 126.621L448.28 151.264H456.372L486.258 85.4253H478.257L462.257 120.92L447.177 85.4253H438.809L456.924 126.621H459.591Z" fill="white"/>
</svg>
